<?xml version="1.0" encoding="UTF-8" standalone="no"?>
<!-- Created with Inkscape (http://www.inkscape.org/) -->

<svg
   xmlns:dc="http://purl.org/dc/elements/1.1/"
   xmlns:cc="http://creativecommons.org/ns#"
   xmlns:rdf="http://www.w3.org/1999/02/22-rdf-syntax-ns#"
   xmlns:svg="http://www.w3.org/2000/svg"
   xmlns="http://www.w3.org/2000/svg"
   xmlns:sodipodi="http://sodipodi.sourceforge.net/DTD/sodipodi-0.dtd"
   xmlns:inkscape="http://www.inkscape.org/namespaces/inkscape"
   width="62.854542mm"
   height="28.411127mm"
   viewBox="0 0 222.71294 100.66935"
   id="svg4516"
   version="1.1"
   inkscape:version="0.91 r13725"
   sodipodi:docname="dessin2.svg">
  <defs
     id="defs4518" />
  <sodipodi:namedview
     id="base"
     pagecolor="#ffffff"
     bordercolor="#666666"
     borderopacity="1.0"
     inkscape:pageopacity="0.0"
     inkscape:pageshadow="2"
     inkscape:zoom="1.979899"
     inkscape:cx="274.61443"
     inkscape:cy="35.530172"
     inkscape:document-units="px"
     inkscape:current-layer="g4746"
     showgrid="false"
     fit-margin-top="0"
     fit-margin-left="0"
     fit-margin-right="0"
     fit-margin-bottom="0"
     inkscape:window-width="1301"
     inkscape:window-height="744"
     inkscape:window-x="65"
     inkscape:window-y="24"
     inkscape:window-maximized="1" />
  <metadata
     id="metadata4521">
    <rdf:RDF>
      <cc:Work
         rdf:about="">
        <dc:format>image/svg+xml</dc:format>
        <dc:type
           rdf:resource="http://purl.org/dc/dcmitype/StillImage" />
        <dc:title></dc:title>
      </cc:Work>
    </rdf:RDF>
  </metadata>
  <g
     inkscape:label="Calque 1"
     inkscape:groupmode="layer"
     id="layer1"
     transform="translate(-255.40538,-333.72729)">
    <g
       id="g4746"
       transform="translate(-231.83001,-1.5152288)">
      <g
         id="g4814"
         transform="translate(19.253814,-7.553288)">
        <g
           id="g4789">
          <g
             transform="matrix(0.125,0,0,-0.125,-382.22339,887.68191)"
             id="g4442">
            <path
               d="m 7359.05,3803.91 c -28.18,-17.68 -59.52,-26.94 -92.84,-24.19 -30.14,2.5 -56.48,16.45 -85.53,23.41 -45.72,10.94 -77.35,-4.35 -114.26,-31.2 -1.17,-0.85 -1.67,-1.95 -1.93,-3.1 -0.59,-0.24 -1.12,-0.56 -1.62,-0.98 -6.96,2.42 -13.57,5.43 -19.86,8.88 59.14,68.74 131.98,120.87 215.64,154.24 5.21,-3.69 10.47,-7.33 15.97,-10.71 5.86,-3.6 11.21,5.61 5.38,9.2 -3.18,1.95 -6.16,4.12 -9.24,6.18 4.02,1.5 8.03,3.02 12.1,4.43 6.44,2.23 3.67,12.52 -2.83,10.27 -6.72,-2.34 -13.36,-4.81 -19.95,-7.37 -24.31,17.95 -45.19,39.52 -62.2,64.06 6.94,8.25 14.43,17.5 17.28,25.59 1.9,3.06 3.71,6.17 5.43,9.34 0.47,0.49 0.8,0.92 1.17,1.36 0.73,0.45 1.39,1.06 1.86,2.09 0.88,1.97 1.77,3.94 2.65,5.91 1.48,3.29 0.3,6.56 -3.19,7.82 -0.09,0.03 -0.17,0.06 -0.27,0.09 -2.19,0.8 -4.88,-0.53 -6.01,-2.44 -7.42,-12.6 -15.94,-26.06 -25.4,-39.87 -8.91,14.14 -16.73,29.08 -23.05,44.94 -2.51,6.29 -12.81,3.55 -10.27,-2.83 7.28,-18.26 16.38,-35.35 26.85,-51.4 -49.64,-70.13 -122.18,-146.2 -198.15,-162.92 -0.84,-0.18 -1.52,-0.5 -2.07,-0.92 -6.45,16.92 -9.49,35.31 -8.37,54.2 31.78,5.74 59.77,23.7 74.15,53.72 20.39,42.56 1.82,91.74 19.56,135.28 48.76,119.66 233.34,146.73 314.12,49.31 76.48,-92.24 86.49,-262.38 -25.12,-332.39 z m -370.35,30.52 c 0.31,0.02 0.58,-0.06 0.91,0.02 54.2,11.92 98.73,54.04 136.88,92.03 22.11,22.01 43.36,44.85 62.37,69.61 0.6,0.78 1.3,1.63 1.97,2.46 16.11,-22.77 35.61,-42.86 57.91,-60.14 -82.58,-34.06 -154.77,-86.07 -213.49,-154.41 -0.52,-0.6 -0.85,-1.25 -1.07,-1.89 -19.8,13.09 -35.48,31.21 -45.48,52.32 z m 1.62,-96.38 c -9.97,6.21 -19.26,13.33 -27.88,21.36 -11.27,10.58 -21.61,22.5 -28.9,36.2 -21,39.4 -13.7,93.27 32.61,110.64 -1.77,-1.54 -1.72,-4.35 -0.38,-6.48 -4.62,-62.58 33.61,-120.29 92.37,-141.48 -20.38,-32.22 -42.99,-39.01 -67.82,-20.24 z m -87.12,5.35 c -18.38,29.26 -49.24,136.18 16.93,134.77 -16.32,-34.79 -5.13,-81.78 22.27,-113.26 20.16,-23.16 54.28,-52.44 87.8,-49.89 -16.52,-70.76 -105.78,-5.41 -127,28.38 z m 72.14,-68.82 c -81.06,-73.2 -211.85,109.01 -113.06,151.41 1,0.43 1.61,1.06 2.06,1.74 2.48,0.41 4.89,1.68 6.69,3.5 -0.47,-38.15 15.93,-84.63 30.67,-104.22 17.71,-23.53 44.47,-47.53 74.88,-51.69 -0.42,-0.22 -0.85,-0.38 -1.24,-0.74 z m -157.46,80.38 c 7.56,-36.75 35.51,-75.05 69.55,-94.68 -52.96,-4.72 -88.9,47.39 -69.55,94.68 z m 589.64,367.42 c -59.62,90.31 -165.53,106.36 -258.96,57.44 -37.31,-19.54 -72.86,-49.25 -89.07,-89.12 -28.1,-69.07 17.01,-168.37 -90.86,-183.38 -0.78,-0.11 -1.31,-0.45 -1.84,-0.77 6.24,2.42 3.49,12.56 -2.93,10.21 -17.17,-6.28 -29.56,-16.24 -37.9,-28.33 -0.06,0.01 -0.1,0.05 -0.17,0.06 -35.43,3.72 -50.44,-16.83 -53.93,-44.84 -3.21,3.17 -9.06,-0.13 -8.66,-4.73 -3.3,3.71 -9.73,-0.01 -8.75,-4.97 -27.62,-12.9 -38.74,-35.52 -38.56,-60.66 -0.57,-0.39 -1.09,-0.92 -1.53,-1.63 -37.21,-60.1 12.42,-132.42 81.52,-121.14 2.32,0.38 3.44,1.87 3.72,3.58 27.36,-11.59 57.34,-10.46 83.27,12.95 2.84,2.56 1.7,5.97 -0.69,7.74 3.52,-0.19 7.07,-0.19 10.68,0.21 25,2.73 42.63,18.99 48.22,42.11 20.61,6.17 32.3,24.16 30.26,45.41 0.16,0.1 0.3,0.1 0.46,0.22 45.28,32.94 83.11,37.63 135.32,20.82 27.96,-9 53.8,-17.54 83.56,-14.84 43.89,3.97 84.83,27.57 113.68,60.31 70.22,79.68 58.84,209.01 3.16,293.35"
               style="fill:#040606;fill-opacity:1;fill-rule:nonzero;stroke:none"
               id="path196"
               inkscape:connector-curvature="0" />
            <path
               d="m 7119.78,4120.31 c -26.27,-9.15 -41.47,-37.57 -33.75,-64.47 1.88,-6.57 12.16,-3.78 10.27,2.83 -6.04,21.05 5.46,44.11 26.31,51.37 6.44,2.24 3.67,12.53 -2.83,10.27"
               style="fill:#040606;fill-opacity:1;fill-rule:nonzero;stroke:none"
               id="path198"
               inkscape:connector-curvature="0" />
            <path
               d="m 7160.12,4127.94 c -24.02,-8.27 -42.23,-27.12 -49.42,-51.51 -1.94,-6.59 8.34,-9.4 10.27,-2.83 6.1,20.67 21.56,37.04 41.98,44.08 6.45,2.22 3.68,12.51 -2.83,10.26"
               style="fill:#040606;fill-opacity:1;fill-rule:nonzero;stroke:none"
               id="path200"
               inkscape:connector-curvature="0" />
            <path
               d="m 7426.79,4035.75 c -1.76,6.61 -12.04,3.81 -10.27,-2.83 8.01,-30.04 6.03,-60.23 -6.32,-88.83 -2.69,-6.22 6.48,-11.65 9.2,-5.37 13.51,31.27 16.18,64.06 7.39,97.03"
               style="fill:#040606;fill-opacity:1;fill-rule:nonzero;stroke:none"
               id="path202"
               inkscape:connector-curvature="0" />
            <path
               d="m 6976.81,4077.79 c -27.27,13.07 -55.93,20.79 -86.07,23.18 -6.83,0.54 -6.8,-10.11 0,-10.65 28.27,-2.24 55.13,-9.47 80.69,-21.72 6.15,-2.95 11.57,6.23 5.38,9.19"
               style="fill:#040606;fill-opacity:1;fill-rule:nonzero;stroke:none"
               id="path204"
               inkscape:connector-curvature="0" />
            <path
               d="m 7161.38,4275.55 c -8.97,25.53 -15.26,51.63 -18.62,78.48 -0.84,6.7 -11.51,6.79 -10.65,0 3.48,-27.85 9.69,-54.82 19,-81.31 2.25,-6.42 12.55,-3.66 10.27,2.83"
               style="fill:#040606;fill-opacity:1;fill-rule:nonzero;stroke:none"
               id="path206"
               inkscape:connector-curvature="0" />
            <path
               d="m 7443.67,4313.27 c -9.74,-20.98 -19.49,-41.97 -29.24,-62.96 -2.87,-6.17 6.31,-11.59 9.2,-5.37 9.75,20.99 19.5,41.97 29.24,62.96 2.87,6.17 -6.31,11.59 -9.2,5.37"
               style="fill:#040606;fill-opacity:1;fill-rule:nonzero;stroke:none"
               id="path208"
               inkscape:connector-curvature="0" />
            <path
               d="m 7640.71,4062.43 c -26.17,-1.67 -51.62,-6.42 -76.6,-14.44 -6.5,-2.09 -3.72,-12.38 2.83,-10.27 24.06,7.73 48.54,12.45 73.77,14.06 6.81,0.44 6.86,11.09 0,10.65"
               style="fill:#040606;fill-opacity:1;fill-rule:nonzero;stroke:none"
               id="path210"
               inkscape:connector-curvature="0" />
            <path
               d="m 7519.08,3753.42 c -19.11,17.88 -38.22,35.76 -57.33,53.64 -5.01,4.68 -12.56,-2.84 -7.54,-7.53 19.11,-17.88 38.22,-35.76 57.34,-53.64 5,-4.68 12.55,2.84 7.53,7.53"
               style="fill:#040606;fill-opacity:1;fill-rule:nonzero;stroke:none"
               id="path212"
               inkscape:connector-curvature="0" />
            <path
               d="m 7291.29,3637.12 c -7.21,19.76 -9.58,39.91 -7.2,60.81 0.77,6.79 -9.89,6.74 -10.66,0 -2.48,-21.81 0.06,-43.02 7.58,-63.64 2.33,-6.38 12.63,-3.63 10.28,2.83"
               style="fill:#040606;fill-opacity:1;fill-rule:nonzero;stroke:none"
               id="path214"
               inkscape:connector-curvature="0" />
          </g>
          <g
             transform="matrix(0.125,0,0,-0.125,541.26397,913.18161)"
             id="g4413">
            <g
               id="g4401">
              <path
                 inkscape:connector-curvature="0"
                 id="path792"
                 style="fill:#040606;fill-opacity:1;fill-rule:nonzero;stroke:none"
                 d="m 305.422,3778.37 c 3.844,15.44 4.844,30.96 3.148,46.62 291.715,-2.55 583.43,-5.1 875.15,-7.64 -2.15,-16 -4.3,-32 -6.45,-48 -290.196,21.02 -581.278,24.04 -871.848,9.02 z m 29.445,96.46 c 32.578,43.55 66.004,86.45 99.981,128.92 30.066,-13.2 74.953,-5.34 102.855,-5.47 75.324,-0.35 150.649,-0.71 225.973,-1.06 75.324,-0.36 150.644,-0.71 225.969,-1.06 28.975,-0.14 69.455,-6.51 98.995,6.11 23.86,-45.52 47.71,-91.04 71.56,-136.56 3.44,-6.57 18.23,-26.6 13.53,-34.06 -4.63,-7.34 -30.68,-3.3 -37.5,-3.24 l -78.82,0.69 c -108.012,0.94 -216.023,1.88 -324.039,2.83 -105.098,0.91 -210.191,1.83 -315.289,2.75 -28.758,0.25 -58.953,-1.91 -87.578,0.76 -34.039,3.19 -12.117,17.36 4.363,39.39 z m 78.934,199.86 c -2.649,119.99 4.152,240.98 6.297,361 3.644,0.26 6.996,3.84 4.363,7.65 -29.184,42.24 40.176,40.93 55.363,41.12 14.653,0.17 29.305,0.2 43.957,0.3 29.305,0.2 58.606,0.4 87.91,0.61 l 167.028,1.15 c 54.09,0.37 108.183,0.75 162.273,1.12 28.317,0.2 56.629,0.43 84.948,0.59 9.96,0.05 20.04,0.51 30,0.07 26.29,-1.15 79.1,-23.53 58.12,-58.73 -1.92,-3.21 -0.03,-6.2 2.62,-7.36 0.54,-115.51 9.16,-234.57 0.19,-349.59 -3.86,-49.5 -40.05,-66.06 -83.77,-66.02 -28.97,0.02 -57.944,0.27 -86.909,0.41 -60.839,0.28 -121.679,0.57 -182.515,0.86 -57.942,0.27 -115.879,0.54 -173.821,0.81 -28.976,0.14 -57.941,0.28 -86.917,0.41 -29.715,0.14 -32.676,-1.11 -60.649,16.04 -28.957,17.74 -27.828,19.64 -28.488,49.56 z m 777.159,-244.76 c -30.96,59.09 -61.92,118.19 -92.89,177.28 4.76,3.05 9.14,6.72 12.92,11.29 32.01,38.65 16.96,116.47 16.86,161.45 -0.2,82.68 -0.39,165.36 -0.58,248.05 0,1.06 -0.32,1.9 -0.75,2.64 16.43,37.22 -22.26,63.65 -57.53,67.65 -44.42,5.02 -91.799,0.25 -136.49,-0.06 l -153.781,-1.06 c -99.625,-0.69 -199.274,-0.87 -298.895,-2.07 -28.496,-0.34 -90.746,-12.25 -67.238,-52.91 -1.703,-0.72 -3.059,-2.22 -3.098,-4.62 -1.363,-77.76 -2.718,-155.52 -4.078,-233.28 -0.652,-37.44 -1.48,-74.88 -1.961,-112.32 -0.265,-20.53 -3.015,-46.54 6.801,-65.77 3.758,-7.37 9.012,-12.92 15.219,-17.21 -46.078,-57.7 -90.973,-116.29 -134.594,-175.88 -2.477,-3.38 0.887,-7.98 4.598,-8.01 l 2.425,-0.02 c 1.911,-15.81 0.84,-31.44 -3.453,-47 -1.168,-4.25 2.645,-6.89 6.008,-6.52 0.453,-2.16 2.043,-3.99 4.934,-3.84 290.824,15.04 582.156,12 872.613,-9.06 2.83,-2.05 8.39,-0.71 9.03,4.07 2.79,20.73 5.57,41.46 8.36,62.19 0.44,3.28 -1.86,4.92 -4.43,5.01" />
              <path
                 inkscape:connector-curvature="0"
                 id="path794"
                 style="fill:#040606;fill-opacity:1;fill-rule:nonzero;stroke:none"
                 d="m 1070.05,4054.49 c 11.73,131.25 21.82,263.07 -4.83,393.18 5.68,0.83 5.37,10.16 -1.06,10.49 -196.715,9.92 -393.64,9.35 -590.293,-1.72 -1.14,-0.06 -2.027,-0.49 -2.789,-1.03 -2.074,-0.54 -3.871,-2.13 -3.996,-4.87 -6.105,-132.98 -9.82,-266.02 -11.152,-399.12 -0.028,-2.86 1.824,-4.46 3.98,-4.93 -0.262,-2.84 1.379,-5.89 5.055,-5.93 199.765,-1.93 399.543,-2.69 599.325,-2.29 6.85,0.02 6.86,10.66 0,10.65 -199.259,-0.41 -398.509,0.36 -597.755,2.28 0.004,0.08 0.047,0.13 0.047,0.22 1.313,131.58 4.984,263.1 10.965,394.56 192.297,10.69 384.859,11.32 577.223,1.94 -0.12,-0.67 -0.15,-1.39 0.01,-2.18 26.7,-129.5 16.29,-260.68 4.62,-391.25 -0.61,-6.82 10.05,-6.78 10.65,0" />
              <path
                 inkscape:connector-curvature="0"
                 id="path796"
                 style="fill:#040606;fill-opacity:1;fill-rule:nonzero;stroke:none"
                 d="m 485,4135 0,-70 10,0 0,70 c 0,10 -10,10 -10,0" />
              <path
                 inkscape:connector-curvature="0"
                 id="path798"
                 style="fill:#040606;fill-opacity:1;fill-rule:nonzero;stroke:none"
                 d="m 533.387,4088.65 c -6.543,21.09 -7.242,42.14 -1.934,63.59 1.649,6.65 -8.625,9.49 -10.273,2.83 -5.735,-23.18 -5.145,-46.44 1.933,-69.25 2.024,-6.52 12.313,-3.74 10.274,2.83" />
              <path
                 inkscape:connector-curvature="0"
                 id="path800"
                 style="fill:#040606;fill-opacity:1;fill-rule:nonzero;stroke:none"
                 d="m 1024.44,4430.82 c -19.85,1.4 -39.432,0.51 -59.112,-2.41 -6.758,-1 -3.887,-11.27 2.832,-10.27 18.699,2.78 37.43,3.36 56.28,2.03 6.84,-0.48 6.81,10.17 0,10.65" />
              <path
                 inkscape:connector-curvature="0"
                 id="path802"
                 style="fill:#040606;fill-opacity:1;fill-rule:nonzero;stroke:none"
                 d="m 1046.61,4410.93 c -11.83,-1.51 -23.66,-3.03 -35.5,-4.54 -6.7,-0.86 -6.79,-11.52 0,-10.65 11.84,1.51 23.67,3.03 35.5,4.54 6.71,0.86 6.8,11.52 0,10.65" />
              <path
                 inkscape:connector-curvature="0"
                 id="path804"
                 style="fill:#040606;fill-opacity:1;fill-rule:nonzero;stroke:none"
                 d="m 966.012,3865.93 c -6.082,12.84 -12.168,25.67 -18.25,38.51 24.418,-0.88 48.832,-1.96 73.248,-3.17 6.49,-11.71 12.73,-23.57 18.97,-35.43 -24.67,0.03 -49.296,0.06 -73.968,0.09 z m -80.442,0.11 c -4.906,13.38 -9.101,26.92 -12.64,40.62 20.965,-0.46 41.922,-1.09 62.883,-1.79 6.148,-12.97 12.292,-25.95 18.445,-38.92 -22.918,0.03 -45.77,0.06 -68.688,0.09 z m -86.617,0.11 c -0.418,13.88 -0.84,27.77 -1.258,41.66 21.403,-0.17 42.805,-0.49 64.203,-0.91 3.446,-13.77 7.59,-27.38 12.411,-40.85 -25.149,0.03 -50.176,0.06 -75.356,0.1 z m -2.75,91.19 c 18.746,-0.11 37.496,-0.31 56.246,-0.6 1.727,-13.21 4.067,-26.25 6.946,-39.15 -20.672,0.4 -41.344,0.72 -62.024,0.88 l -1.168,38.87 z m 115.695,-2.01 c 6.258,-13.21 12.516,-26.41 18.774,-39.62 -20.113,0.66 -40.234,1.24 -60.356,1.67 -2.976,12.89 -5.378,25.93 -7.148,39.14 16.242,-0.29 32.484,-0.77 48.73,-1.19 z m 79.442,-2.61 c 8.004,-13.4 15.83,-26.89 23.48,-40.48 -24.062,1.16 -48.129,2.2 -72.199,3.04 -6.277,13.26 -12.562,26.51 -18.844,39.76 22.528,-0.63 45.047,-1.42 67.563,-2.32 z m -287,-86.45 c -0.07,13.84 0.137,27.67 0.824,41.46 27.293,0.26 54.586,0.24 81.879,0.08 0.422,-13.88 0.836,-27.77 1.258,-41.65 -27.996,0.04 -55.922,0.07 -83.961,0.11 z m 5.023,90.97 c 25.395,0.24 50.789,0.3 76.18,0.2 0.395,-12.99 0.785,-25.98 1.18,-38.97 -26.961,0.15 -53.914,0.19 -80.875,-0.06 0.832,12.95 2.011,25.9 3.515,38.83 z m -14.175,-38.93 c -24.504,-0.27 -49.008,-0.65 -73.516,-1.26 2.824,13 5.644,26.01 8.469,39.02 22.847,0.54 45.703,0.76 68.55,1.01 -1.496,-12.91 -2.675,-25.83 -3.503,-38.77 z m -1.5,-52.03 c -27.696,0.04 -55.243,0.07 -83.004,0.11 l 8.66,39.92 c 25.054,0.64 50.109,1.04 75.164,1.32 -0.684,-13.75 -0.891,-27.54 -0.82,-41.35 z m -93.887,0.12 c -22.305,0.03 -44.551,0.05 -66.91,0.08 3.726,12.81 8.136,25.31 13.226,37.51 20.762,0.81 41.524,1.48 62.281,2.05 -2.863,-13.21 -5.73,-26.43 -8.597,-39.64 z m -78.047,0.1 c -24.438,0.03 -48.774,0.06 -73.289,0.09 6.996,11.39 14.129,22.69 21.418,33.88 21.496,1.15 42.996,2.1 64.504,2.99 -4.84,-12.06 -9.086,-24.36 -12.633,-36.96 z m -17,85.25 c 18.187,0.83 36.371,1.53 54.562,2.19 -7.648,-12.85 -14.461,-26.06 -20.433,-39.64 -20.621,-0.83 -41.242,-1.72 -61.86,-2.79 9.004,13.57 18.286,26.96 27.731,40.24 z m 67.324,2.67 c 15.703,0.53 31.406,0.95 47.11,1.35 -2.821,-13 -5.637,-26 -8.461,-39.01 -19.95,-0.54 -39.899,-1.16 -59.844,-1.92 6.199,13.55 13.246,26.75 21.195,39.58 z M 1095,3865.77 c -20,0.02 -29.42,0.04 -45.33,0.06 -6.09,11.66 -11.09,23.25 -17.43,34.77 13.13,-0.68 26.85,-1.32 39.97,-2.11 6.85,-0.41 7.12,10.24 0.3,10.65 -15.09,0.91 -30.03,1.65 -45.13,2.42 -7.63,13.67 -15.51,27.16 -23.5,40.64 5.36,-0.23 10.76,-0.41 16.12,-0.66 6.86,-0.32 6.86,10.32 0.02,10.65 -7.47,0.35 -14.93,0.6 -22.391,0.91 -0.313,0.51 -0.59,1.04 -0.902,1.56 -2.622,4.35 -8.36,2.51 -9.696,-1.13 -22.789,0.89 -45.57,1.67 -68.363,2.29 -0.555,1.17 -1.105,2.34 -1.66,3.51 -2.582,5.45 -10,1.9 -9.738,-3.23 -15.122,0.38 -30.243,0.84 -45.368,1.1 -0.316,2.92 -0.679,5.82 -0.941,8.76 -0.594,6.77 -11.254,6.83 -10.652,0 0.254,-2.87 0.609,-5.7 0.914,-8.55 -18.453,0.29 -36.899,0.48 -55.344,0.59 -0.035,1.14 -0.07,2.29 -0.106,3.43 -0.203,6.84 -10.859,6.87 -10.652,0 0.035,-1.11 0.067,-2.23 0.102,-3.34 -24.91,0.09 -49.825,0.05 -74.731,-0.18 0.508,6.41 -9.594,6.31 -10.586,-0.15 -22.48,-0.25 -44.961,-0.45 -67.437,-0.97 0.254,1.19 0.515,2.38 0.769,3.57 1.453,6.68 -8.816,9.53 -10.273,2.83 -0.481,-2.23 -0.969,-4.47 -1.453,-6.7 -14.16,-0.35 -28.321,-0.71 -42.481,-1.17 0.024,0.03 0.047,0.07 0.071,0.1 3.82,5.71 -5.403,11.05 -9.2,5.38 -1.316,-1.96 -2.523,-3.97 -3.793,-5.95 -17.804,-0.62 -35.605,-1.28 -53.402,-2.07 2.836,3.91 5.594,7.87 8.473,11.76 4.082,5.52 -5.16,10.83 -9.2,5.37 -4.351,-5.87 -8.558,-11.85 -12.82,-17.79 -14.277,-0.66 -28.551,-1.28 -42.824,-2.06 -6.82,-0.37 -6.863,-11.02 0,-10.65 11.621,0.64 23.25,1.12 34.879,1.68 -9.352,-13.28 -18.426,-26.73 -27.332,-40.3 -14.379,-0.78 -28.762,-1.47 -43.133,-2.37 -6.812,-0.43 -6.859,-11.08 0,-10.65 11.988,0.75 23.988,1.31 35.984,1.98 -7.054,-10.96 -11.25,-22 -18.023,-33.15 -15.508,0.02 -33.711,0.04 -43.711,0.06 0,0.01 0,-10.64 0,-10.65 10,-0.01 23.859,-0.03 37.191,-0.05 -0.238,-0.39 -1.847,-0.78 -2.086,-1.18 -3.515,-5.9 5.008,-11.27 8.516,-5.38 1.309,2.2 2.348,4.36 3.668,6.55 25.774,-0.03 51.188,-0.07 76.871,-0.1 -0.59,-2.35 -1.324,-4.68 -1.871,-7.06 -1.527,-6.67 8.703,-9.51 10.234,-2.82 0.762,3.32 1.625,6.58 2.473,9.87 22.567,-0.03 45,-0.06 67.508,-0.09 -0.184,-0.83 -0.367,-1.65 -0.547,-2.48 -1.449,-6.68 8.816,-9.54 10.27,-2.83 0.386,1.76 0.765,3.53 1.148,5.3 28.555,-0.04 56.887,-0.07 85.371,-0.11 0.024,-1.27 -0.012,-2.53 0.016,-3.8 0.168,-6.84 10.82,-6.86 10.656,0 -0.035,1.27 0.004,2.53 -0.02,3.79 28.125,-0.04 56.141,-0.07 84.223,-0.11 0.129,-4.21 0.254,-8.42 0.379,-12.62 0.211,-6.84 10.863,-6.87 10.656,0 -0.129,4.2 -0.254,8.4 -0.383,12.61 26.403,-0.03 52.649,-0.07 79.02,-0.1 1.211,-3.12 2.379,-6.25 3.668,-9.36 2.578,-6.24 12.891,-3.5 10.269,2.83 -0.894,2.16 -1.695,4.35 -2.554,6.51 23.234,-0.02 46.402,-0.05 69.629,-0.08 1.547,-3.26 3.09,-6.52 4.633,-9.78 2.933,-6.19 12.121,-0.79 9.199,5.37 -0.696,1.47 -1.387,2.93 -2.078,4.39 24.89,-0.03 49.741,-0.06 74.621,-0.09 0.89,-1.71 1.85,-3.38 2.73,-5.1 3.08,-5.99 9.57,-0.88 6.89,5.08 14.03,-0.02 29.7,-0.03 39.7,-0.05 10,-0.01 10,10.64 0,10.65" />
              <path
                 inkscape:connector-curvature="0"
                 id="path806"
                 style="fill:#040606;fill-opacity:1;fill-rule:nonzero;stroke:none"
                 d="m 1117.28,3920.72 c -10.27,17.8 -20.54,35.6 -30.81,53.4 -3.43,5.93 -12.63,0.57 -9.2,-5.38 10.27,-17.8 20.54,-35.59 30.81,-53.39 3.43,-5.93 12.63,-0.58 9.2,5.37" />
              <path
                 inkscape:connector-curvature="0"
                 id="path808"
                 style="fill:#040606;fill-opacity:1;fill-rule:nonzero;stroke:none"
                 d="m 1125.76,3871.63 c -16.34,25.1 -32.67,50.2 -49.01,75.31 -3.72,5.72 -12.95,0.39 -9.2,-5.38 16.34,-25.1 32.67,-50.2 49.01,-75.3 3.72,-5.73 12.95,-0.4 9.2,5.37" />
              <path
                 inkscape:connector-curvature="0"
                 id="path810"
                 style="fill:#040606;fill-opacity:1;fill-rule:nonzero;stroke:none"
                 d="m 395,3815 -60,0 c -10,0 -10,-10 0,-10 l 60,0 0,10" />
            </g>
          </g>
        </g>
        <text
           xml:space="preserve"
           style="font-style:normal;font-weight:normal;font-size:40px;line-height:124.00000095%;font-family:sans-serif;letter-spacing:0px;word-spacing:0px;fill:#000000;fill-opacity:1;stroke:none;stroke-width:1px;stroke-linecap:butt;stroke-linejoin:miter;stroke-opacity:1"
           x="612.70728"
           y="391.44226"
           id="text4655"
           sodipodi:linespacing="124%"><tspan
             sodipodi:role="line"
             id="tspan4657"
             x="612.70728"
             y="391.44226"
             style="font-size:25px;line-height:124.00000095%">&lt;/&gt;</tspan></text>
      </g>
      <g
         id="g4864"
         transform="matrix(0.559269,0,0,0.559269,261.74432,264.21513)">
        <path
           inkscape:connector-curvature="0"
           id="path224-3"
           style="fill:#171717;fill-opacity:1;fill-rule:nonzero;stroke:none"
           d="m 443.22244,361.31594 c 0.0425,3.6975 -0.0638,7.46 0.46875,11.12625 -2.73,1.88125 -5.3875,3.61625 -8.985,2.85875 -5.4125,-1.14 -7.48875,-6.25125 -7.88875,-11.21875 -0.3675,-4.5525 -0.0437,-9.53625 3.5825,-12.795 3.8875,-3.495 8.89875,-3.06625 12.895,-0.0812 0.0575,0.0425 0.11375,0.0737 0.17125,0.1025 -0.61375,3.24 -0.28125,6.75 -0.24375,10.0075 z m 27.78875,-0.14125 c -0.71625,3.85125 -1.8225,7.66875 -3.96375,10.9875 -3.255,5.04375 -11.7225,10.82875 -16.32375,3.80875 -0.48125,-0.735 -1.7925,-0.29 -1.48625,0.62625 0.009,0.0263 0.0225,0.0475 0.0312,0.075 -2.34875,3.03375 -5.1075,5.145 -8.32,6.0675 1.38625,-1.22375 2.76,-2.455 4.10375,-3.7275 0.18375,-0.17375 -0.0875,-0.435 -0.275,-0.275 -1.605,1.375 -3.16375,2.79 -4.71375,4.2225 -1.90875,0.4075 -3.97,0.4125 -6.1975,-0.0575 1.8325,-1.425 3.61875,-2.90375 5.3825,-4.41375 0.19,-0.1625 -0.0813,-0.42125 -0.27,-0.27125 -1.87125,1.49125 -3.7175,3.00625 -5.5125,4.59 -0.32875,-0.0775 -0.65875,-0.155 -0.995,-0.2525 -1.41625,-0.41 -2.68125,-0.995 -3.82125,-1.71 1.04125,-0.425 1.88125,-1.14 2.42625,-2.145 0.1025,-0.18875 -0.18,-0.355 -0.29,-0.16875 -0.56125,0.95375 -1.43125,1.7075 -2.4625,2.115 -1.22125,-0.8125 -2.2875,-1.785 -3.215,-2.87875 0.84875,-0.79375 1.575,-1.80875 2.27625,-2.70125 0.14,-0.1775 -0.0875,-0.425 -0.25625,-0.255 -0.78625,0.78875 -1.69,1.61875 -2.3775,2.5375 -1.10375,-1.39375 -1.98625,-2.975 -2.695,-4.66 1.12,-1.1875 2.1875,-2.4275 3.23375,-3.68 0.125,-0.15 -0.0813,-0.365 -0.2175,-0.2175 -1.08125,1.1625 -2.145,2.3475 -3.1575,3.5725 -0.6075,-1.505 -1.07,-3.0925 -1.41375,-4.7125 0.885,-0.8725 1.775,-1.74 2.64625,-2.625 0.155,-0.1575 -0.085,-0.3975 -0.24125,-0.2425 -0.83625,0.82375 -1.655,1.66375 -2.47625,2.50125 -0.065,-0.3225 -0.13375,-0.64375 -0.18875,-0.96875 -0.18375,-1.0775 -0.3275,-2.1925 -0.43375,-3.3225 1.865,-1.915 3.7225,-3.835 5.55,-5.78625 -0.53375,2.72875 -0.475,5.64875 -0.135,8.35125 0.61125,4.86 2.89,9.44625 7.72875,11.21125 3.99875,1.45875 9.3875,0.44125 11.7225,-3.275 0.325,-0.0975 0.6225,-0.36125 0.65375,-0.73875 0.055,-0.62875 0.0863,-1.26125 0.10875,-1.89375 1.11875,-0.87125 2.13125,-1.83625 3.015,-2.96375 0.11125,-0.1425 -0.0763,-0.345 -0.20375,-0.20375 -0.86875,0.96125 -1.8025,1.87875 -2.79875,2.71375 0.0362,-1.43625 0.004,-2.88 -0.0425,-4.32375 1.01625,-0.89125 2.03125,-1.78125 3.02125,-2.70125 0.1625,-0.15125 -0.0775,-0.385 -0.24125,-0.24125 -0.9475,0.82625 -1.8675,1.68125 -2.79,2.5325 -0.06,-1.7525 -0.1375,-3.505 -0.155,-5.24 0,-0.03 0,-0.0613 0,-0.0913 1.08,-0.99 2.15625,-1.98375 3.2225,-2.98875 0.15125,-0.1425 -0.075,-0.3675 -0.2275,-0.2275 -1.005,0.93 -2,1.87 -2.99375,2.81125 0,-2.14 0.12375,-4.34 -0.004,-6.49375 1.115,-1.3725 2.3075,-2.685 3.565,-3.9275 0.18625,-0.18375 -0.0925,-0.4575 -0.28375,-0.285 -1.2075,1.09125 -2.3025,2.27 -3.32625,3.52375 -0.0713,-0.81 -0.18375,-1.6125 -0.3625,-2.4 0.0325,-0.3575 -0.0925,-0.73 -0.46125,-0.98875 -0.4825,-0.3375 -0.98125,-0.6375 -1.49,-0.90875 0.7125,-0.64625 1.42625,-1.2925 2.13,-1.94875 0.15875,-0.14875 -0.0762,-0.38125 -0.23625,-0.2375 -0.74375,0.6675 -1.47625,1.34625 -2.21125,2.0225 -1.93,-0.965 -4.015,-1.44125 -6.08375,-1.36375 0.8075,-0.7775 1.74,-1.43 2.75125,-1.87 0.16875,-0.0737 0.045,-0.3725 -0.12625,-0.30125 -1.2175,0.5125 -2.1925,1.25625 -2.99125,2.1925 -2.02375,0.14 -4.0225,0.8125 -5.83875,2.095 -2.71375,1.9175 -4.16375,4.7025 -4.83375,7.7575 -0.0612,-0.0387 -0.13875,-0.0513 -0.205,0.0175 -1.84625,1.8825 -3.65875,3.79875 -5.4675,5.7175 -0.1425,-1.7275 -0.17125,-3.4925 -0.06,-5.24375 0.05,0.0263 0.1075,0.0325 0.1575,-0.025 1.3575,-1.54625 2.8175,-2.9975 4.335,-4.385 0.14875,-0.13625 -0.0675,-0.34375 -0.2175,-0.2175 -1.555,1.30125 -2.955,2.74375 -4.2525,4.3 0.13875,-1.87875 0.4625,-3.7325 0.99375,-5.505 2.5275,-2.2 5.02625,-4.43 7.4625,-6.73125 0.175,-0.16375 -0.0825,-0.41375 -0.26125,-0.26 -2.375,2.0525 -4.6925,4.1675 -6.98625,6.31 0.755,-2.23875 1.87,-4.3275 3.475,-6.12 5.34625,-5.97375 13.775,-6.50375 19.07,-0.24125 0.405,0.4775 1.05,0.24625 1.3275,-0.19375 0.66875,-0.55 1.06625,-1.7625 1.735,-2.245 0.55,-0.39625 1.2425,-0.62375 1.9225,-0.555 0.71,0.0712 1.21125,0.52125 1.8525,0.72375 3.2925,6.7625 -4.3625,30.5575 8.455,28.735 2.82125,0.13875 4.76875,-2.0225 6.06,-4.5825 1.15125,-0.9475 2.3025,-1.895 3.435,-2.86375 0.17875,-0.15375 -0.0775,-0.4 -0.25625,-0.25625 -0.9425,0.76 -1.86875,1.54 -2.79875,2.3175 0.51,-1.15625 0.9,-2.34875 1.17875,-3.42 0.17,-0.65 0.30375,-1.30625 0.41875,-1.96625 1.185,-1.005 2.365,-2.015 3.51375,-3.065 0.0963,-0.0875 -0.045,-0.22375 -0.1425,-0.14125 -1.13,0.94875 -2.2275,1.93125 -3.32125,2.92 0.33875,-2.09875 0.41375,-4.23375 0.245,-6.3525 0.99875,-0.70125 1.94625,-1.47875 2.98125,-2.135 0.185,-0.1175 0.0175,-0.40875 -0.1725,-0.295 -0.9625,0.5675 -1.98625,1.19875 -2.85,1.9575 -0.21625,-2.22625 -0.6875,-4.42875 -1.42625,-6.53875 0.79,-0.67375 1.575,-1.3525 2.3375,-2.05625 0.14875,-0.13625 -0.0662,-0.34 -0.2175,-0.2175 -0.76375,0.61875 -1.5075,1.26125 -2.24625,1.90875 -0.28375,-0.77625 -0.59875,-1.54 -0.95,-2.28625 -0.75125,-1.6 -1.6725,-3.1425 -2.7225,-4.615 1.09375,-1.06125 2.18,-2.13 3.2425,-3.225 0.175,-0.18 -0.0937,-0.44875 -0.275,-0.275 -1.085,1.04125 -2.14375,2.10625 -3.19625,3.17875 -1.32375,-1.80875 -2.84625,-3.50625 -4.53,-5.04375 0.6175,-0.44625 1.23,-0.89875 1.8425,-1.355 0.1075,-0.08 0.007,-0.265 -0.10875,-0.185 -0.65125,0.44625 -1.3,0.89625 -1.94375,1.3525 -1.48,-1.33 -3.06625,-2.55125 -4.755,-3.605 0.43375,-0.31125 0.875,-0.61375 1.30375,-0.93375 0.14875,-0.11 0.01,-0.36375 -0.14875,-0.255 -0.48125,0.33125 -0.94875,0.67875 -1.42125,1.01875 -1.8225,-1.1125 -3.74375,-2.04875 -5.73,-2.77 0.33625,-0.17875 0.66625,-0.375 0.9825,-0.60625 0.16375,-0.12125 0.0113,-0.39625 -0.1625,-0.27875 -0.4075,0.28 -0.8375,0.51375 -1.28125,0.71625 -2.04125,-0.70375 -4.14375,-1.18875 -6.27375,-1.39625 0.805,-0.4 1.61125,-0.79375 2.40625,-1.21375 0.0925,-0.0487 0.0113,-0.1825 -0.0812,-0.13875 -0.89,0.42 -1.765,0.87 -2.645,1.31125 -0.005,0.002 -0.005,0.009 -0.009,0.0112 -1.705,-0.14375 -3.4225,-0.12 -5.135,0.1025 -13.0975,1.7025 -22.0345,13.66 -24.13613,26.02375 -2.101,12.36125 0.0503,28.98375 10.92988,36.7275 11.58125,8.24125 27.71125,8.175 39.49,0.45375 0.15875,-0.105 0.27,-0.23375 0.34625,-0.37125 0.9275,-0.11125 1.93625,0.12125 2.4725,0.88 0.33125,0.46625 0.425,1.07625 0.33625,1.63375 -0.11,0.69 -0.5775,1.0775 -0.88125,1.64 -0.24375,0.006 -0.49375,0.0987 -0.71625,0.3225 -3.04125,3.0625 -7.79,4.99625 -12.705,6.15875 1.505,-1.2875 2.895,-2.70875 4.1675,-4.2325 0.1725,-0.205 -0.11125,-0.50125 -0.29875,-0.29875 -1.57875,1.70625 -3.27375,3.275 -5.0225,4.7925 -2.2975,0.48625 -4.60625,0.8125 -6.77,1.00875 1.59375,-1.16625 3.09,-2.455 4.47125,-3.88875 0.2225,-0.23 -0.12125,-0.57375 -0.35125,-0.35125 -1.5975,1.555 -3.2925,2.99125 -5.07375,4.32125 -0.93875,0.07 -1.84875,0.12 -2.7075,0.145 -1.64125,0.0487 -3.2725,-0.0388 -4.8825,-0.2425 1.27125,-1.10125 2.54375,-2.2 3.7875,-3.3325 0.1925,-0.17625 -0.0913,-0.455 -0.28375,-0.285 -1.3275,1.16625 -2.625,2.3625 -3.92,3.5625 -2.09375,-0.29375 -4.1475,-0.7875 -6.1275,-1.4875 1.51125,-1.01 2.92125,-2.14125 4.23375,-3.40625 0.22125,-0.21375 -0.11125,-0.5425 -0.33625,-0.3375 -1.40375,1.28 -2.9,2.44625 -4.45875,3.5275 -1.81125,-0.68 -3.565,-1.5125 -5.22,-2.52875 0.86375,-0.8475 1.72625,-1.69625 2.58125,-2.55125 0.125,-0.125 -0.0687,-0.32 -0.19375,-0.195 -0.86875,0.86875 -1.73,1.745 -2.59125,2.6225 -1.89625,-1.185 -3.67262,-2.58 -5.282,-4.19375 -0.004,-0.004 -0.007,-0.007 -0.0107,-0.0113 1.55813,-1.15 2.99025,-2.705 4.28525,-4.12375 0.20625,-0.225 -0.1025,-0.52625 -0.33125,-0.33125 -1.36613,1.15875 -2.83875,2.435 -4.01162,3.82875 10e-4,-0.11125 0.003,-0.2225 0.005,-0.33375 0.003,-0.16125 -0.26313,-0.2075 -0.2895,-0.04 -0.0289,0.1825 -0.0576,0.365 -0.0864,0.54625 -1.25738,-1.3175 -2.38088,-2.73 -3.37801,-4.22375 1.02101,-0.87125 2.00051,-1.7975 2.99663,-2.69625 0.23675,-0.21375 -0.11725,-0.56875 -0.35112,-0.35125 -0.959,0.89625 -1.94038,1.775 -2.87601,2.69625 -0.85637,-1.31875 -1.6255,-2.69375 -2.30462,-4.1175 1.15725,-0.97125 2.28175,-1.98125 3.38913,-3.00625 0.17625,-0.16375 -0.0815,-0.4125 -0.26075,-0.26125 -1.11813,0.945 -2.22363,1.90875 -3.29738,2.905 -0.72513,-1.56125 -1.36125,-3.17125 -1.8945,-4.825 1.0835,-1.15125 2.19825,-2.2725 3.33637,-3.3675 0.17875,-0.1725 -0.0869,-0.43125 -0.2705,-0.27125 -1.15475,1.0075 -2.19525,2.11625 -3.17962,3.2825 -0.4805,-1.5325 -0.86188,-3.10375 -1.19438,-4.68875 0.811,-0.88125 1.63525,-1.74625 2.51763,-2.56125 0.15962,-0.1475 -0.0752,-0.37625 -0.23738,-0.23625 -0.85,0.73125 -1.64837,1.52375 -2.36862,2.38375 -0.28025,-1.39 -0.4985,-2.79625 -0.67775,-4.20625 1.042,-0.94875 2.05037,-1.92875 3.03662,-2.93875 0.15138,-0.155 -0.0786,-0.3825 -0.23725,-0.2375 -0.97762,0.90125 -1.92825,1.825 -2.8545,2.775 -0.17487,-1.44625 -0.294,-2.89875 -0.37312,-4.3475 0.0171,-0.007 0.0353,-0.004 0.0514,-0.0187 1.42813,-1.295 2.84025,-2.61375 4.20363,-3.9775 0.15375,-0.15375 -0.0777,-0.38125 -0.23738,-0.2375 -1.37987,1.23875 -2.71925,2.525 -4.0385,3.8275 -0.0885,-1.805 -0.10412,-3.6 -0.0635,-5.37375 1.20213,-1.14625 2.3755,-2.325 3.53363,-3.51 0.15725,-0.16 -0.0859,-0.40375 -0.2465,-0.24625 -1.10213,1.0775 -2.19875,2.17 -3.271,3.2825 0.039,-1.36125 0.10487,-2.71125 0.21237,-4.03375 0.0118,-0.1475 0.0376,-0.2925 0.0513,-0.44 1.26663,-1.36375 2.51275,-2.745 3.75,-4.13625 0.1255,-0.14125 -0.0796,-0.34875 -0.209,-0.20875 -1.17425,1.2775 -2.33537,2.56375 -3.48487,3.8625 0.229,-2.17625 0.66212,-4.31 1.24612,-6.39 1.52588,-1.45625 3.042,-2.9225 4.52788,-4.42125 0.1215,-0.1225 -0.065,-0.30875 -0.19,-0.18875 -1.42388,1.36 -2.81938,2.7475 -4.2055,4.145 0.67375,-2.2925 1.56687,-4.50125 2.6445,-6.605 1.63375,-1.845 3.38863,-3.57875 5.24613,-5.2025 0.183,-0.16 -0.0831,-0.42125 -0.26525,-0.265 -1.55125,1.3225 -2.98476,2.74875 -4.33638,4.255 4.31348,-7.70625 11.30723,-13.75625 20.25223,-16.30875 13.8975,-3.96375 30.2,1.915 38.19375,14.0075 5.315,8.04125 5.4925,17.1975 3.7825,26.39125 z m -25.0125,-42.9625 c -16.36875,-3.38 -33.214,5.065 -40.41088,20.15375 -6.8305,14.32 -5.31875,36.355 3.418,49.62375 5.19925,7.895 13.67788,13.32125 23.09038,14.49375 6.095,0.76 12.2275,-0.24125 18.12,-1.79375 4.78625,-1.26125 9.5475,-2.6175 13.12625,-6.195 0.055,-0.055 0.10125,-0.11375 0.14125,-0.1725 0.045,-0.007 0.085,-0.004 0.13125,-0.0163 2.5075,-0.71125 2.53625,-4.62875 1.22375,-6.3475 -1.30875,-1.715 -3.8875,-2.19125 -5.60875,-0.95875 -0.0213,0.0113 -0.0425,0.0188 -0.0638,0.0325 -11.01,7.21375 -25.855,7.4025 -36.8375,-0.0625 -12.52063,-8.51 -13.65288,-30.95375 -7.794,-43.7425 6.3865,-13.94125 21.644,-19.93125 35.2415,-12.16875 1.90875,1.08875 3.72625,2.36875 5.4,3.8175 -0.02,0.015 -0.04,0.0288 -0.06,0.0438 -0.125,0.0937 -0.009,0.30625 0.125,0.21375 0.0413,-0.0288 0.0825,-0.0588 0.125,-0.0875 3.59,3.15375 6.50125,7.08375 8.18625,11.56625 0.115,0.3075 0.21875,0.61875 0.3225,0.93125 -0.0275,0.0238 -0.0537,0.0462 -0.08,0.07 -0.14375,0.12625 0.035,0.3125 0.1875,0.24125 0.95125,2.99125 1.36375,6.185 1.12625,9.30875 -0.28125,3.68875 -1.69625,9.87375 -5.43625,11.84875 -0.23625,-0.22375 -0.56625,-0.35375 -0.9675,-0.27875 -10.46875,1.96375 -2.07875,-22.59375 -7.47875,-27.7325 -0.7725,-1.9575 -4.21625,-1.57375 -5.60125,-0.59625 -0.62,0.43875 -1.23875,1.10125 -1.63,1.82125 -4.54875,-5.58875 -13.20625,-5.29125 -18.63375,-0.84 -7.2525,5.95125 -8.29875,15.98875 -6.8725,24.67625 1.4775,8.99125 6.14375,16.99375 15.74875,18.65375 4.9775,0.86 14.1325,-0.615 15.89125,-6.2875 3.14125,4.85625 10.46875,3.18625 14.6575,-0.2375 6.72125,-5.49125 8.48875,-14.8125 9.12125,-23.02125 1.3575,-17.62875 -10.60625,-33.385 -27.90875,-36.9575" />
        <path
           inkscape:connector-curvature="0"
           id="path274"
           style="fill:#171717;fill-opacity:1;fill-rule:nonzero;stroke:none"
           d="m 521.69975,398.81088 c -8.15125,4.34 -16.63625,1.0425 -22.01875,-5.27625 2.51875,2.16375 5.76375,3.6425 9.96875,4.08875 13.13875,1.3925 22.02625,-10.6 21.35,-22.7125 4.43375,7.8875 -1.805,19.9075 -9.3,23.9 z m -21.7125,-48.43625 c 0.5125,-4.45875 0.90625,-10.39875 3.61375,-14.16875 3.72125,-5.18375 9.08375,-4.90875 13.24,-2.0425 -8.0975,0.49625 -11.7875,9.75375 -12.7575,17.18375 -1.5875,12.1625 -0.24625,24.72625 2.5425,36.63625 -7.41875,-3.96375 -7.085,-15.8475 -7.26875,-23.165 -0.12125,-4.81875 0.08,-9.65375 0.63,-14.44375 z m 30.5075,-9.67 c -1.1375,0.77125 -2.135,1.5025 -3.6275,1.4725 -0.8225,-0.0163 -1.6025,-0.2525 -2.30625,-0.6375 2.10125,-0.0725 4.24875,-2.1475 3.76125,-4.65875 -0.9375,-4.8225 -3.85125,-8.44875 -7.63375,-10.655 1.085,0.41 2.16,0.9075 3.23,1.52125 4.3925,2.52 9.78,7.815 6.57625,12.9575 z m -0.43875,30.71125 c -1.905,-2.1025 -6.59,-1.5475 -7.05,1.65125 -0.6125,4.24875 -0.44,8.8725 -3.39125,12.36 -2.61375,3.09 -6.9475,4.5075 -10.85125,3.41625 -0.40375,-0.1125 -0.7825,-0.25 -1.15125,-0.4 -1.59625,-9.23125 -3.0725,-18.48125 -2.90875,-27.88125 0.15375,-8.8575 1.45125,-26.10875 13.87125,-24.98875 1.2325,1.1725 2.29,2.58 3.06875,4.12375 0.23375,0.46375 0.52,0.82625 0.8375,1.10875 1.98125,2.82375 6.94125,3.73 8.94125,0.34 0.0575,-0.0962 0.07,-0.2 0.0525,-0.29875 2.39625,-3.4125 0.4925,-7.995 -2.4725,-10.84625 -4.80875,-4.625 -12.25,-7.43 -18.91625,-6.6975 -0.3275,0.035 -0.48875,0.29125 -0.48125,0.535 -2.845,0.27375 -5.65625,1.20125 -8.14875,2.8475 -5.93875,3.92375 -7.955,10.5075 -9.07,17.185 -1.30625,7.81375 -1.83375,15.745 -1.435,23.65875 0.30875,6.14875 1.0575,12.955 3.4725,18.55375 2.62625,12.095 16.62625,19.90625 27.98625,13.9425 5.73125,-3.0075 9.61,-8.92375 10.90125,-15.17875 0.91,-4.40625 0.7375,-10.62 -3.255,-13.43125" />
        <path
           inkscape:connector-curvature="0"
           id="path276"
           style="fill:#171717;fill-opacity:1;fill-rule:nonzero;stroke:none"
           d="m 577.01225,395.91088 c -1.22,0.42875 -2.51625,0.3 -3.65875,-0.21 1.7525,-0.0125 3.33,-1.31 3.50375,-3.44375 0.48625,-5.95125 -5.445,-13.42375 -8.86,-17.99375 -2.265,-3.0325 -4.75875,-5.955 -7.55125,-8.53375 7.22125,-1.39375 13.74625,-6.19125 16.625,-13.345 2.61,-6.48625 2.04625,-13.475 -0.96375,-19.20125 1.985,2.54625 3.42125,5.55375 4.04625,9.23625 1.67625,9.86875 -3.6575,21.0175 -13.415,24.30625 -0.5075,0.17125 -0.465,0.78875 -0.10875,0.99375 -0.0875,0.215 -0.085,0.47125 0.0987,0.695 4.76375,5.7775 11.08375,13.54 13.26375,21.03875 -0.0637,0.10125 -0.0937,0.235 -0.0662,0.395 0.42125,2.42125 -0.36125,5.165 -2.91375,6.0625 z m -19.5175,-59.875 c 2.335,-2.80375 7.78625,-0.50125 10.315,0.89125 0.2075,0.11375 0.42625,0.085 0.6075,-0.0125 1.36,2.43125 2.03375,5.3 1.70875,8.36125 -0.8425,7.91125 -7.035,11.91125 -13.90125,12.1025 0.1925,-3.49625 0.22,-6.9975 0.225,-10.5 0.004,-3.34 -0.6325,-7.785 1.045,-10.8425 z m -7.04,20.6375 c -10e-4,0 -0.002,0 -0.004,0 0.085,-4.22125 0.16875,-8.4425 0.2525,-12.665 0.0625,-3.09 0.12375,-6.18 0.185,-9.27 0.0588,-2.94375 -0.36625,-4.39625 2.98875,-4.90625 5.30125,-0.805 10.19375,1.37 13.21625,5.1175 -2.86,-1.48125 -7.55875,-2.40375 -9.75,-0.445 -0.1375,0 -0.27625,0.05 -0.39,0.17 -2.0875,2.21125 -1.88125,4.9275 -1.89625,7.825 -0.0237,4.9625 -0.06,9.93625 0.21125,14.8925 -1.59875,-0.0387 -3.2225,-0.2725 -4.81375,-0.71875 z m 0.3175,40.39875 c -1.53375,0.50125 -2.91875,1.0675 -4.625,0.56875 -1.59,-0.46375 -2.73875,-1.7175 -3.20875,-3.23125 1.87,1.9275 5.44625,2.1825 6.03625,-1.22875 1.53,-8.84625 1.32125,-18.16125 1.34375,-27.24 0.79875,0.96625 1.6125,1.91875 2.43125,2.86625 -0.0363,0.0738 -0.0613,0.15875 -0.0625,0.26125 -0.0363,4.29 0.0662,8.58125 0.0375,12.87125 -0.0188,2.99375 1.16625,13.3825 -1.9525,15.1325 z m 30.04375,-7.64125 c -0.6575,-3.66125 -2.8375,-7.0425 -4.7225,-10.18 -2.4725,-4.1125 -5.3125,-7.98375 -8.37125,-11.67625 19.43625,-5.2825 17.63375,-36.92625 -0.0888,-43.28875 -1.0825,-0.635 -2.22875,-1.1925 -3.445,-1.65 -5.21625,-1.97 -11.76375,-2.23 -16.87,0.2775 -6.54625,3.215 -4.9675,11.255 -5.09,17.3875 -0.1725,8.65125 -0.35875,17.30375 -0.5025,25.95625 -0.1425,8.54625 -1.0125,17.47 0.10375,25.95625 0.0325,0.24375 0.0925,0.4775 0.17,0.70375 -0.94875,5.21 6.26,8.16375 9.85,4.68125 0.11,-0.1075 0.1375,-0.245 0.11375,-0.3725 2.1525,-1.265 1.91,-4.56375 1.99,-7.01125 0.21875,-6.6825 0.2725,-13.42 -0.075,-20.1025 2.70375,3.11125 5.41375,6.21125 7.7725,9.61625 1.73375,2.50375 3.335,5.0975 4.76375,7.78625 1.34625,2.5325 2.15625,5.385 4.405,7.24375 0.0225,0.0188 0.0475,0.0325 0.0712,0.0512 1.38875,2.06 4.01625,3.12125 6.51375,2.23125 2.84375,-1.0125 4.70625,-4.60875 3.505,-7.46375 -0.025,-0.0587 -0.06,-0.10375 -0.0937,-0.14625" />
        <path
           inkscape:connector-curvature="0"
           id="path278"
           style="fill:#171717;fill-opacity:1;fill-rule:nonzero;stroke:none"
           d="m 616.851,397.37713 c -0.605,5.34 -12.58875,4.62 -16.505,4.355 -5.2625,-0.35625 -7.055,-2.71625 -9.24125,-5.88875 0.285,0.0775 0.57875,0.13125 0.88,0.15125 4.0325,4.05125 12.765,2.80375 17.7925,1.99875 3.8225,-0.61375 3.745,-4.985 1.43625,-7.08625 1.37375,0.0625 2.6425,0.2825 3.8725,1.40875 1.3125,1.19875 1.93875,2.90875 2.00125,4.6425 -0.12,0.0863 -0.21375,0.22125 -0.23625,0.41875 z m -14.07625,-64.875 c 3.205,0.19 6.74625,0.91875 9.77625,-0.2625 1.78125,-0.695 2.93875,-2.76 2.5925,-4.51375 0.82,0.76625 1.35125,1.795 1.3175,3.1 -0.0725,2.8 -2.93375,4.345 -5.29125,4.85875 -3.15125,0.68625 -6.4775,0.12375 -9.56875,0.94375 -0.19,0.05 -0.2175,0.2575 -0.12125,0.38625 -0.34,0.005 -0.68,0.225 -0.68375,0.6625 -0.10125,9.19 -0.65625,18.53875 -0.0625,27.7125 -1.66875,0.0988 -3.3225,0.15375 -4.985,0.0988 -0.0113,-1.81125 -0.02,-3.6225 -0.0312,-5.435 -0.0538,-9.4125 0.33625,-18.97375 -0.28625,-28.39 2.40125,0.53375 4.9,0.69375 7.34375,0.83875 z m 0.26125,41.03375 c 1.40875,0.0288 2.915,-0.79875 3.58375,-2.055 l 0.22875,-0.43 c 0.54875,-1.03 0.6825,-2.39875 0,-3.41875 -0.0763,-0.11375 -0.1525,-0.2275 -0.22875,-0.34125 -0.105,-0.1575 -0.2225,-0.3125 -0.3475,-0.46125 2.8575,0.82375 5.25,3.5475 4.3325,6.7075 -0.67,2.31 -2.4375,2.51375 -4.48375,2.5275 -1.75375,0.0113 -3.5125,0.0675 -5.26,0.22375 -0.31625,-0.21625 -0.8875,-0.0137 -0.89125,0.45375 -0.0225,2.37375 0.2125,4.74625 0.20125,7.12375 -0.0112,2.095 -0.29875,4.26 -0.1975,6.35625 -0.25375,-0.0113 -0.50625,-0.015 -0.76125,-0.0288 -0.805,-0.0462 -1.55625,-0.11375 -2.27375,-0.15375 -0.005,-0.0138 -0.008,-0.0275 -0.0125,-0.0412 -0.25125,-0.715 -0.645,-1.2675 -1.1175,-1.68 0.01,-0.1075 0.02,-0.21625 0.035,-0.34125 0.14375,-1.1975 -0.008,-2.51625 -0.0113,-3.72375 -0.009,-2.7925 -0.0137,-5.58375 -0.0263,-8.37625 -0.004,-1.08375 -0.0125,-2.16625 -0.0175,-3.24875 2.39625,0.525 4.84375,0.85875 7.2475,0.9075 z m 13.22125,17.96125 c -1.68375,-1.71 -5.1875,-3.0725 -7.4225,-1.6725 -0.4125,-0.0475 -0.84125,-0.0575 -1.30375,0.0213 -2.2525,0.38375 -4.4875,0.47125 -6.74625,0.4075 1.12,-3.92 1.01,-9.06875 0.36625,-13.05125 4.1775,0.46625 10.32,1.33125 10.98375,-4.20375 0.51125,-4.25875 -3.4525,-7.9 -7.56375,-7.745 -0.1475,0.006 -0.26125,0.0587 -0.35625,0.1275 -0.37625,-0.1175 -0.76875,-0.17625 -1.17875,-0.14625 -0.41625,0.0325 -0.83,0.06 -1.24375,0.0888 -0.025,-0.0925 -0.105,-0.16375 -0.22125,-0.135 1.38375,-0.33375 0.57375,-25.17125 0.59875,-27.51125 0.002,-0.20375 -0.0737,-0.355 -0.185,-0.465 2.79875,0.81875 6.21875,0.42375 9.03625,-0.1175 2.46375,-0.4725 4.925,-1.54125 6.1625,-3.85375 2.0875,-3.9025 -1.31,-8.36125 -5.4175,-8.32875 -2.6425,-0.82 -5.4125,-0.65875 -8.2575,-0.765 -3.48875,-0.13125 -6.985,-0.20625 -10.39375,0.65375 -0.14625,0.0375 -0.29,0.09 -0.43125,0.15125 -2.1425,-0.79375 -4.91375,0.3475 -5.18,3.45625 -0.97375,11.38125 -0.30125,23.02125 -0.27625,34.4375 0.0137,5.585 0.0225,11.16875 0.05,16.75375 0.02,3.90125 -0.91375,9.24875 0.6475,13.07625 0.004,0.02 10e-4,0.0375 0.006,0.0575 0.89875,3.02125 3.02375,6.17 5.4225,8.24125 2.6475,2.28625 5.32375,2.1975 8.68375,2.0925 4.045,-0.125 16.02375,1.42 15.935,-5.1425 0.5625,-2.27375 -10e-4,-4.6875 -1.715,-6.4275" />
        <path
           inkscape:connector-curvature="0"
           id="path280"
           style="fill:#171717;fill-opacity:1;fill-rule:nonzero;stroke:none"
           d="m 661.161,355.43963 c -0.13375,13.70875 -1.37125,27.30875 -2.10625,40.97625 -0.0563,0.0588 -0.1025,0.1325 -0.12125,0.23875 -0.5225,2.96375 -3.50625,4.11625 -6.29,3.29125 -1.1575,-0.3425 -2.06375,-1.00125 -2.75375,-1.84 2.1975,1.06125 5.23625,0.53125 5.68,-2.39125 1.245,-8.205 0.9975,-16.78625 1.34125,-25.07625 0.32375,-7.81625 0.78375,-15.64125 0.95125,-23.46125 0.17125,-7.94 -1.69125,-17.7275 -7.57125,-23.14125 9.68375,5.71125 10.9775,20.43625 10.87,31.40375 z m -12.16625,0.43 c -0.1375,3.32375 -0.27375,6.64625 -0.41,9.96875 -3.3175,-0.765 -6.97125,-0.2325 -10.33,-0.0175 -0.5025,0.0325 -1.00125,0.0775 -1.50375,0.115 1.2275,-5.30875 1.1175,-11.0275 1.47125,-16.455 0.39875,-6.105 0.29125,-20.05125 9.61625,-14.86875 2.58,6.38875 1.36625,16.135 1.15625,21.2575 z m -0.79625,19.38375 c -0.0375,0.89125 -0.085,1.78875 -0.13625,2.6875 -4.11,-0.0225 -8.26625,-0.1775 -12.35125,0.28875 -0.38,0.0425 -0.48125,0.4075 -0.31875,0.63875 -0.4,4.64125 -0.0913,9.38 -0.105,14.03625 -0.004,1.01125 0.0162,2.00375 -0.12625,3.00875 -0.335,2.35125 -0.42125,2.80625 -2.80375,3.705 -1.49625,1.2425 -2.73625,1.0175 -3.71875,-0.675 -0.8125,-0.3975 -1.4025,-0.95875 -1.8,-1.66375 2.01625,0.73625 4.67875,-0.455 4.73875,-3.1525 0.15375,-6.9275 -0.0975,-13.8275 -0.25,-20.735 2.5725,0.2175 5.14625,0.3575 7.73375,0.45125 3.0125,0.10875 6.24,0.46125 9.20375,-0.20625 l -0.0662,1.61625 z m -16.72625,-19.46125 c 0.325,-5.77 0.46,-11.66125 1.27,-17.38625 0.58375,-4.125 2.105,-10.50125 7.53125,-9.89 3.08,0.3475 5.15625,1.8875 6.54875,4.09875 -3.62,-1.36625 -7.27625,-0.0825 -8.7475,4.49 -1.24625,3.87 -0.96,8.37375 -1.21375,12.37625 -0.34375,5.3925 -1.17875,11.0225 -0.6475,16.40625 0.004,0.035 0.0275,0.0575 0.0425,0.0863 -1.67875,0.13125 -3.35375,0.28 -5.025,0.46625 -0.0125,-3.5425 0.04,-7.08875 0.24125,-10.6475 z m 31.03375,-9.8025 c -0.8125,-11.08625 -6.6225,-25.77125 -19.7525,-25.7325 -0.8075,-0.15375 -1.65375,-0.25375 -2.54125,-0.29375 -14.01125,-0.64125 -15.9025,15.115 -16.6025,25.5225 -1.0675,15.885 -3.39625,34.04 1.185,49.55875 0.13625,0.46375 0.3425,0.8575 0.59875,1.18625 1.37375,3.865 4.28125,7.68 8.55625,5.02625 2.1825,-1.355 2.59125,-4.0425 2.73125,-6.39375 0.30375,-5.10625 0.3025,-10.6175 -0.14875,-15.72125 3.78625,0.4025 7.63125,0.32625 11.43625,0.34875 -0.3075,4.97125 -0.69125,10.01625 -0.37375,14.925 -0.005,0.0538 0.006,0.10125 0.004,0.1525 -0.2,0.91375 0.04,2.015 0.34,2.80125 0.7325,1.91625 2.41375,3.28 4.35625,3.84125 2.4675,0.71375 8.79,-0.43875 7.76125,-4.145 1.195,-7.98125 1.7,-16.0575 2.105,-24.115 0.44875,-8.91375 0.99875,-18.04625 0.345,-26.96125" />
        <path
           inkscape:connector-curvature="0"
           id="path282"
           style="fill:#171717;fill-opacity:1;fill-rule:nonzero;stroke:none"
           d="m 692.31225,330.94588 c -1.235,2.2825 -4.6075,3.01375 -6.9925,3.10375 -0.41,0.0163 -0.5275,0.4 -0.38625,0.67125 -0.18125,0.1175 -0.31875,0.30625 -0.3275,0.58625 -0.32625,10.33375 -0.43125,20.67625 -0.7575,31.01125 -0.31,9.84375 -1.0325,19.75375 -0.8325,29.605 -0.5225,2.56 -2.1875,4.57375 -5.12875,3.7375 -0.8775,-0.24875 -1.59125,-0.72875 -2.17625,-1.33875 1.5925,0.13625 3.30875,-0.65 3.58,-2.35375 1.74375,-10.96375 1.2925,-22.2725 1.56375,-33.35375 0.2575,-10.5725 0.9,-21.165 1.045,-31.74 2.34375,0.13375 4.64625,0.0312 6.71875,-1.2 1.12625,-0.66875 1.81375,-2.1725 1.63,-3.50875 1.80625,1.05375 3.25625,2.575 2.06375,4.78 z m -19.1275,2.52875 c -1.59,-0.13375 -3.19375,-0.17 -4.78625,-0.11 -1.3325,-0.7275 -2.44875,-1.7125 -3.2925,-2.985 -0.0675,-0.10375 -0.11625,-0.21375 -0.1775,-0.32 l 0,0 c 2.7725,0.55375 5.6025,0.53125 8.4325,0.49625 -0.0662,0.9725 -0.12125,1.94625 -0.17625,2.91875 z m 14.735,-10.03375 c -0.0725,-0.0238 -0.13375,-0.02 -0.19875,-0.025 -2.925,-1.5175 -6.18125,-1.24125 -9.67375,-1.305 -4.30875,-0.0775 -8.95,-0.41375 -13.11875,0.80375 -2.42875,0.71 -3.29,3.7975 -2.125,5.7 0.54125,2.5425 2.9225,4.8775 5,5.99625 0.32375,0.175 0.6275,0.065 0.8225,-0.1475 1.475,0.2675 2.97375,0.45625 4.47125,0.55875 -0.475,9.1825 -0.5475,18.42 -0.7625,27.5925 -0.26125,11.06875 -1.01875,22.37 0.55625,33.35375 0.0887,0.62125 0.37,1.11625 0.765,1.49375 0.8475,1.975 2.575,3.46625 4.9625,3.7025 2.90625,0.28875 6.29,-2.21375 5.5475,-5.3875 -0.002,-0.0138 -0.0125,-0.0238 -0.0163,-0.0375 0.95125,-9.74875 0.93,-19.64125 1.2,-29.42125 0.285,-10.33375 0.67625,-20.67375 0.75125,-31.01125 10e-4,-0.105 -0.0225,-0.1925 -0.0525,-0.27375 3.2325,0.13625 7.335,-1.02875 8.12375,-4.57125 0.8575,-3.85125 -3.25375,-6.02875 -6.2525,-7.02125" />
        <path
           inkscape:connector-curvature="0"
           id="path284"
           style="fill:#171717;fill-opacity:1;fill-rule:nonzero;stroke:none"
           d="m 713.42975,393.01338 c -0.425,5.0275 -7.125,8.31875 -9.67,3.77125 0.96,0.5625 2.15625,0.77375 3.35125,0.54125 0.67,-0.13125 1.305,-0.3575 1.895,-0.6575 0.56875,-0.96875 0.98,-1.9625 1.345,-3.005 -0.56375,-5.63375 -0.85125,-11.39875 -0.24375,-17.01625 -0.19375,-16.75375 -0.5225,-33.5475 -0.0163,-50.2475 0.006,-0.20625 -0.0188,-0.3975 -0.0437,-0.59 1.7225,1.98875 2.22625,4.76125 2.2875,7.8925 0.0625,3.14375 0.125,6.2875 0.18625,9.43125 0.125,6.2875 0.24875,12.575 0.3725,18.8625 0.1175,5.9725 0.23625,11.94625 0.35375,17.91875 0.0625,3.14375 0.1325,6.2875 0.19,9.43125 0.0213,1.2175 0.095,2.45125 -0.007,3.6675 z m 1.1625,-17.815 -0.66375,-33.95125 c -0.085,-4.36875 1.02375,-10.56125 -0.715,-14.64375 -1.09625,-2.57375 -3.8375,-3.6125 -6.3025,-4.43 -0.33875,-0.1125 -0.59125,0.0338 -0.72625,0.26375 -1.86,-0.1925 -3.75375,0.665 -4.08625,2.88125 -0.7475,4.97375 -0.365,10.15875 -0.37625,15.18 -0.0137,5.96375 -0.0387,11.92875 -0.035,17.8925 0.006,11.615 0.0362,23.23 0.0537,34.84375 10e-4,0.795 0.20625,1.495 0.55125,2.0875 0.7675,4.44375 5.72375,7.52 9.8475,4.1575 2.11625,-1.725 2.58625,-4.5875 2.715,-7.1525 0.28375,-5.67375 -0.15125,-11.44875 -0.2625,-17.12875" />
        <path
           inkscape:connector-curvature="0"
           id="path286"
           style="fill:#171717;fill-opacity:1;fill-rule:nonzero;stroke:none"
           d="m 756.90225,343.08588 c -1.07875,6.39625 -2.49125,12.73 -3.9025,19.06 -1.41375,6.3375 -2.8475,12.675 -3.96125,19.07375 -0.415,2.38625 -0.76625,4.78 -1.09875,7.17875 -0.26375,1.8975 -0.4625,3.9775 -1.11875,5.8125 -0.37625,0.78625 -0.75375,1.5725 -1.13125,2.36 -1.73,2.7225 -3.7775,3.33 -6.1375,1.84875 1.79125,-0.004 3.52625,-0.9725 3.90375,-3.04125 2.3175,-12.71875 4.635,-25.4375 6.95125,-38.155 1.13125,-6.205 2.26125,-12.40875 3.39125,-18.6125 1.03375,-5.6725 3.365,-12.18875 2.20375,-17.90625 -0.1075,-0.52875 -0.32625,-0.96625 -0.61125,-1.3275 6.04,2.05 2.07,20.395 1.51125,23.70875 z m -22.4275,14.80375 c -2.84625,-11.0975 -4.7475,-23.54125 -10.14625,-33.7325 -0.0713,-0.135 -0.155,-0.255 -0.24125,-0.37 5.7575,2.01 8.75,17.96875 10.01625,22.185 2.075,6.91125 3.96875,13.86875 5.9175,20.815 -0.455,2.50125 -0.91,5.0025 -1.36375,7.5025 -1.3925,-5.46625 -2.78125,-10.935 -4.1825,-16.4 z m 18.4375,-40.0025 c -0.21125,0.0425 -0.345,0.15125 -0.42625,0.28625 -1.1775,0.065 -2.3525,0.6325 -3.01,1.67875 -2.99875,4.77125 -3.0875,11.9325 -4.085,17.4175 -1.12875,6.205 -2.2575,12.41 -3.38625,18.61375 -0.4525,2.49 -0.90625,4.98125 -1.35875,7.47125 -2.5925,-9.83375 -5.53125,-19.59125 -8.625,-29.2725 -1.45,-4.54125 -3.79,-14.20875 -10.425,-11.29 -1.35375,0.1775 -2.6275,1.2425 -2.60875,2.81125 0.135,11.5475 4.46,23.43 7.27625,34.55 2.97375,11.745 5.98,23.4825 8.97,35.225 0.15875,0.6225 0.4675,1.14375 0.86,1.58 0.395,4.5875 6.9575,4.6575 9.8925,1.46875 2.84875,-3.09375 2.9975,-7.65875 3.57375,-11.59375 0.8975,-6.13125 2.135,-12.205 3.46,-18.25625 2.405,-10.99625 5.09,-21.96 6.40625,-33.1575 0.5975,-5.09125 2.9175,-19.39125 -6.51375,-17.5325" />
        <path
           inkscape:connector-curvature="0"
           id="path288"
           style="fill:#171717;fill-opacity:1;fill-rule:nonzero;stroke:none"
           d="m 801.61475,398.90088 c -0.1,-0.0913 -0.23875,-0.15 -0.42625,-0.13625 -4.97,0.38 -9.92375,0.8075 -14.90875,0.95375 -4.79625,0.14 -10.69375,0.67 -13.98375,-2.56 0.34,0.0838 0.6975,0.12375 1.07,0.0987 7.6025,-0.5125 16.27875,-0.01 23.66875,-1.8675 1.37,-0.345 2.64375,-1.5625 2.9575,-2.95875 0.25875,-1.1525 0.25375,-2.0475 0.04,-3.17875 2.05125,0.45125 3.76375,1.80875 4.31625,4.0825 0.56125,2.3075 -0.61625,4.8075 -2.73375,5.56625 z m -21.05,-74.995 c 4.67,0.1625 9.41875,0.2175 14.085,0.0138 3.02125,-0.1325 4.345,-2.685 3.96625,-4.93375 1.90125,2.0025 2.3,5.0425 -0.99125,7.005 -1.645,0.98125 -4.66,0.74 -6.49875,0.81375 -3.87,0.155 -7.74125,0.1675 -11.59625,0.55875 -0.21125,0.0212 -0.34375,0.1425 -0.39875,0.29 -0.21625,0.0512 -0.40625,0.22125 -0.43,0.5225 -0.67125,8.615 0.6525,18.09625 1.91625,26.6725 -0.885,0.0362 -1.7675,0.1 -2.625,0.2125 -0.565,0.0737 -1.21,0.23125 -1.835,0.47125 -0.405,-10.51625 0.01,-21.65875 -1.87375,-32.1025 2.01125,0.44625 4.2075,0.405 6.28125,0.47625 z m 3.80625,39.27875 c 2.025,-0.2325 3.76625,-1.38 4.025,-3.5525 0.0587,-0.4975 0.0162,-1.02 -0.10625,-1.5275 0.16,0.1275 0.31875,0.265 0.4675,0.4225 1.2325,1.3 2.055,3.5775 1.1175,5.275 -1.5875,2.87375 -5.77625,1.69375 -8.07625,3.2875 -0.0288,0.0187 -0.05,0.0462 -0.0688,0.0775 -0.2775,-0.41875 -1.08625,-0.275 -1.0425,0.31 0.5075,6.7575 -0.24125,13.99625 1.04875,20.66625 l -4.27625,0.28875 c -0.33875,-8.7025 -0.68625,-17.405 -1.035,-26.10625 0.545,0.1875 1.13375,0.32625 1.7575,0.4325 1.95375,0.3375 4.2125,0.65375 6.18875,0.42625 z m 21.4375,30.6375 c -0.40125,-3.455 -3.21125,-5.83 -6.45625,-6.08125 -0.835,-0.9375 -2.23625,-1.07 -3.44625,-0.61125 -2.97,-0.21375 -6.2625,0.48 -9.1225,0.67375 l -4.14875,0.28 c 0.0937,-6.71375 0.7975,-14.1025 -0.7925,-20.6025 1.7975,0.7975 4.505,0.0188 6.27,-0.63625 1.72125,-0.63875 3.13125,-1.75875 3.52,-3.63125 0.6325,-3.04625 -1.89,-7.35375 -5.18,-7.69125 -0.3025,-0.17375 -0.6275,-0.31875 -0.99125,-0.38625 -1.295,-0.23875 -2.64375,-0.32625 -3.9925,-0.31625 -0.21,-8.83375 -0.945,-17.7475 -1.62625,-26.55375 4.81,0.38375 9.79,0.26625 14.595,-0.11875 2.54875,-0.205 4.76625,-0.78375 6.19375,-3.0925 2.50125,-4.0375 -0.36,-8.98875 -4.8475,-9.2875 -0.35,-0.10125 -0.72,-0.1775 -1.13375,-0.19625 -4.66625,-0.20375 -9.415,-0.14875 -14.085,0.0125 -3.42,0.12 -7.1775,-0.075 -9.87375,2.1325 -1.415,-0.10625 -2.8575,0.58375 -3.11125,2.2 -1.835,11.73625 -0.32375,24.1725 0.1125,35.995 0.45625,12.3575 0.92125,24.715 1.39875,37.07125 0.0325,0.83375 0.31625,1.67375 0.78375,2.3875 0.78,3.41125 2.99125,5.255 7.03,5.6525 7.84875,0.77375 16.48375,-0.075 24.28375,-0.98375 0.1375,-0.0162 0.2425,-0.0737 0.335,-0.145 2.78375,-0.12125 4.63125,-3.0875 4.285,-6.07125" />
      </g>
    </g>
  </g>
</svg>
